<svg width="1280" height="720" xmlns="http://www.w3.org/2000/svg" xmlns:xlink="http://www.w3.org/1999/xlink" overflow="hidden"><defs><clipPath id="clip0"><rect x="0" y="0" width="1280" height="720"/></clipPath></defs><g clip-path="url(#clip0)"><rect x="0" y="0" width="1280" height="720" fill="#FFFFFF"/><path d="M748.5 144.168C748.5 116.185 771.185 93.5001 799.168 93.5001L1001.83 93.5001C1029.82 93.5001 1052.5 116.185 1052.5 144.168L1052.5 455.833C1052.5 483.815 1029.82 506.5 1001.83 506.5L799.168 506.5C771.185 506.5 748.5 483.815 748.5 455.833Z" stroke="#16D3F2" stroke-width="1.33333" stroke-miterlimit="8" stroke-dasharray="10.6667 4" fill="#FFC000" fill-rule="evenodd" fill-opacity="0.101961"/><path d="M354.5 143.001C354.5 115.662 376.662 93.5001 404.001 93.5001L601.999 93.5001C629.338 93.5001 651.5 115.662 651.5 143.001L651.5 607.999C651.5 635.338 629.338 657.5 601.999 657.5L404.001 657.5C376.662 657.5 354.5 635.338 354.5 607.999Z" stroke="#16D3F2" stroke-width="1.33333" stroke-miterlimit="8" stroke-dasharray="10.6667 4" fill="#16D3F2" fill-rule="evenodd" fill-opacity="0.101961"/><path d="M430.5 266.334C430.5 248.2 445.2 233.5 463.334 233.5L594.666 233.5C612.8 233.5 627.5 248.2 627.5 266.334L627.5 524.666C627.5 542.8 612.8 557.5 594.666 557.5L463.334 557.5C445.2 557.5 430.5 542.8 430.5 524.666Z" stroke="#00B0F0" stroke-width="1.33333" stroke-miterlimit="8" stroke-dasharray="10.6667 4" stroke-opacity="0.988235" fill="#4472C4" fill-rule="evenodd" fill-opacity="0"/><text font-family="Times New Roman,Times New Roman_MSFontService,sans-serif" font-weight="400" font-size="24" transform="translate(414.101 149)">2) Task <tspan font-size="24" x="76.56" y="0">Embedding</tspan><tspan font-size="24" x="66.2467" y="29">Cluster</tspan></text><path d="M747.5 313.334C747.5 285.259 770.259 262.5 798.334 262.5L1001.67 262.5C1029.74 262.5 1052.5 285.259 1052.5 313.334L1052.5 607.666C1052.5 635.741 1029.74 658.5 1001.67 658.5L798.334 658.5C770.259 658.5 747.5 635.741 747.5 607.666Z" stroke="#16D3F2" stroke-width="1.33333" stroke-miterlimit="8" stroke-dasharray="10.6667 4" fill="#FF0000" fill-rule="evenodd" fill-opacity="0.101961"/><rect x="461.5" y="267.5" width="113" height="50" stroke="#2F528F" stroke-width="1.33333" stroke-miterlimit="8" fill="#4472C4"/><text font-family="Times New Roman,Times New Roman_MSFontService,sans-serif" font-weight="400" font-size="24" transform="translate(485.203 537)">Domain<tspan font-family="Cambria Math,Cambria Math_MSFontService,sans-serif" font-size="24" x="101.111" y="-235">ğ’Ÿ</tspan><tspan font-family="Cambria Math,Cambria Math_MSFontService,sans-serif" font-size="18" x="117.664" y="-230">1</tspan></text><rect x="461.5" y="325.5" width="113" height="50" stroke="#2F528F" stroke-width="1.33333" stroke-miterlimit="8" fill="#4472C4"/><rect x="462.5" y="447.5" width="112" height="50" stroke="#2F528F" stroke-width="1.33333" stroke-miterlimit="8" fill="#4472C4"/><path d="M518.5 432.5C516.843 432.5 515.5 431.157 515.5 429.5 515.5 427.843 516.843 426.5 518.5 426.5 520.157 426.5 521.5 427.843 521.5 429.5 521.5 431.157 520.157 432.5 518.5 432.5Z" stroke="#2F528F" stroke-width="1.33333" stroke-miterlimit="8" fill="#4472C4" fill-rule="evenodd"/><path d="M518.5 416.5C516.843 416.5 515.5 415.157 515.5 413.5 515.5 411.843 516.843 410.5 518.5 410.5 520.157 410.5 521.5 411.843 521.5 413.5 521.5 415.157 520.157 416.5 518.5 416.5Z" stroke="#2F528F" stroke-width="1.33333" stroke-miterlimit="8" fill="#4472C4" fill-rule="evenodd"/><path d="M518.5 400.5C516.843 400.5 515.5 399.157 515.5 397.5 515.5 395.843 516.843 394.5 518.5 394.5 520.157 394.5 521.5 395.843 521.5 397.5 521.5 399.157 520.157 400.5 518.5 400.5Z" stroke="#2F528F" stroke-width="1.33333" stroke-miterlimit="8" fill="#4472C4" fill-rule="evenodd"/><rect x="291.5" y="329.5" width="121" height="42" stroke="#2F528F" stroke-width="1.33333" stroke-miterlimit="8" fill="#4472C4"/><text fill="#FFFFFF" font-family="Times New Roman,Times New Roman_MSFontService,sans-serif" font-weight="400" font-size="24" transform="translate(308.085 358)">K<tspan font-size="24" x="17.3333" y="0">-</tspan>means<tspan fill="#000000" font-family="Cambria Math,Cambria Math_MSFontService,sans-serif" font-size="24" x="-73.4228" y="-19">ğœƒ</tspan><tspan fill="#000000" font-family="Cambria Math,Cambria Math_MSFontService,sans-serif" font-size="18" x="-60.7695" y="-15">ğ‘ğ‘™ğ‘¢</tspan></text><path d="M68.5001 329.167C68.5001 323.276 73.2758 318.5 79.1669 318.5L207.833 318.5C213.724 318.5 218.5 323.276 218.5 329.167L218.5 371.833C218.5 377.724 213.724 382.5 207.833 382.5L79.1669 382.5C73.2758 382.5 68.5001 377.724 68.5001 371.833Z" stroke="#2F528F" stroke-width="1.33333" stroke-miterlimit="8" fill="#A5A5A5" fill-rule="evenodd"/><text fill="#FFFFFF" font-family="Times New Roman,Times New Roman_MSFontService,sans-serif" font-weight="400" font-size="24" transform="translate(104.831 358)">Pretrain<tspan fill="#000000" font-family="Cambria Math,Cambria Math_MSFontService,sans-serif" font-size="24" x="291.407" y="-47">ğ‘¢</tspan><tspan fill="#000000" font-family="Cambria Math,Cambria Math_MSFontService,sans-serif" font-size="18" x="305.24" y="-42">ğ‘–</tspan><tspan fill="#000000" font-family="Cambria Math,Cambria Math_MSFontService,sans-serif" font-size="24" x="482.712" y="0">ğ’Ÿ</tspan><tspan fill="#000000" font-family="Cambria Math,Cambria Math_MSFontService,sans-serif" font-size="18" x="499.819" y="5">2</tspan><tspan fill="#000000" font-family="Cambria Math,Cambria Math_MSFontService,sans-serif" font-size="24" x="480.396" y="129">ğ’Ÿ</tspan><tspan fill="#000000" font-family="Cambria Math,Cambria Math_MSFontService,sans-serif" font-size="18" x="497.502" y="134">ğ¾</tspan></text><path d="M0.252349-0.217787 45.4517 52.1543 44.947 52.5899-0.252349 0.217787ZM47.3563 48.7493 49.5551 57.4191 41.3 53.9762Z" transform="matrix(1 0 0 -1 412.5 349.919)"/><path d="M412.808 350.373 460.425 466.181 459.809 466.435 412.192 350.627ZM463.309 463.554 462.652 472.474 455.91 466.596Z"/><text font-family="Times New Roman,Times New Roman_MSFontService,sans-serif" font-weight="400" font-size="24" transform="translate(818.501 149)">3) Meta Train</text><rect x="783.5" y="316.5" width="50" height="113" stroke="#2F528F" stroke-width="1.33333" stroke-miterlimit="8" fill="#ED7D31"/><rect x="849.5" y="316.5" width="50" height="113" stroke="#2F528F" stroke-width="1.33333" stroke-miterlimit="8" fill="#ED7D31"/><rect x="979.5" y="316.5" width="49.9999" height="113" stroke="#2F528F" stroke-width="1.33333" stroke-miterlimit="8" fill="#ED7D31"/><path d="M920.5 373.5C920.5 371.843 921.843 370.5 923.5 370.5 925.157 370.5 926.5 371.843 926.5 373.5 926.5 375.157 925.157 376.5 923.5 376.5 921.843 376.5 920.5 375.157 920.5 373.5Z" stroke="#2F528F" stroke-width="1.33333" stroke-miterlimit="8" fill="#4472C4" fill-rule="evenodd"/><path d="M936.5 373.5C936.5 371.843 937.843 370.5 939.5 370.5 941.157 370.5 942.5 371.843 942.5 373.5 942.5 375.157 941.157 376.5 939.5 376.5 937.843 376.5 936.5 375.157 936.5 373.5Z" stroke="#2F528F" stroke-width="1.33333" stroke-miterlimit="8" fill="#4472C4" fill-rule="evenodd"/><path d="M952.5 373.5C952.5 371.843 953.843 370.5 955.5 370.5 957.157 370.5 958.5 371.843 958.5 373.5 958.5 375.157 957.157 376.5 955.5 376.5 953.843 376.5 952.5 375.157 952.5 373.5Z" stroke="#2F528F" stroke-width="1.33333" stroke-miterlimit="8" fill="#4472C4" fill-rule="evenodd"/><text font-family="Cambria Math,Cambria Math_MSFontService,sans-serif" font-weight="400" font-size="24" transform="translate(797.616 452)">e<tspan font-size="18" x="11.1133" y="5">1</tspan><tspan font-size="24" x="65.5165" y="-1">e</tspan><tspan font-size="18" x="77.1832" y="4">2</tspan><tspan font-size="24" x="196.702" y="-1">e</tspan><tspan font-size="18" x="208.368" y="4">3</tspan><tspan font-family="Times New Roman,Times New Roman_MSFontService,sans-serif" font-size="24" x="104.764" y="27">Experts</tspan></text><rect x="839.5" y="178.5" width="121" height="41" stroke="#2F528F" stroke-width="1.33333" stroke-miterlimit="8" fill="#FFC000"/><text fill="#FFFFFF" font-family="Times New Roman,Times New Roman_MSFontService,sans-serif" font-weight="400" font-size="24" transform="translate(876.957 207)">Loss</text><path d="M0.00125724-0.333331 42.7978-0.171914 42.7952 0.494748-0.00125724 0.333331ZM41.4782-3.84358 49.4631 0.186562 41.4481 4.15636Z" transform="matrix(1 0 0 -1 412.5 350.687)"/><text font-family="Cambria Math,Cambria Math_MSFontService,sans-serif" font-weight="400" font-size="27" transform="translate(698.701 178)">ğ›¼<tspan font-size="20" x="16" y="6">ğ‘–</tspan><tspan font-size="20" x="23.5" y="6">,</tspan><tspan font-size="20" x="27.5" y="6">ğ‘—</tspan><tspan font-family="Times New Roman,Times New Roman_MSFontService,sans-serif" font-size="24" x="-68.0418" y="256">Initialization</tspan><tspan font-family="Times New Roman,Times New Roman_MSFontService,sans-serif" font-size="24" x="119.8" y="449">4) Meta Test</tspan></text><path d="M651.5 199.167 833.513 199.167 833.513 199.833 651.5 199.833ZM832.179 195.5 840.179 199.5 832.179 203.5Z"/><path d="M0.000204411-0.333333 66.608-0.292487 66.6076 0.374179-0.000204411 0.333333ZM65.2769-3.95997 73.2744 0.0449344 65.272 4.04003Z" transform="matrix(1 0 0 -1 218.5 350.545)"/><rect x="839.5" y="549.5" width="121" height="42" stroke="#2F528F" stroke-width="1.33333" stroke-miterlimit="8" fill="#C00000"/><text fill="#FFFFFF" font-family="Times New Roman,Times New Roman_MSFontService,sans-serif" font-weight="400" font-size="24" transform="translate(850.291 579)">Prediction</text><path d="M651.5 570.167 833.513 570.167 833.513 570.833 651.5 570.833ZM832.18 566.5 840.18 570.5 832.18 574.5Z"/><text font-family="Cambria Math,Cambria Math_MSFontService,sans-serif" font-weight="400" font-size="27" transform="translate(700.379 549)">ğ›½<tspan font-size="20" x="14.4733" y="6">ğ‘–</tspan><tspan font-size="20" x="21.9733" y="6">,</tspan><tspan font-size="20" x="25.9733" y="6">ğ‘—</tspan></text><path d="M0.333331-0.00111906 0.452473 35.4872-0.21419 35.4895-0.333331 0.00111906ZM4.11464 34.1416 0.141522 42.155-3.88531 34.1684Z" transform="matrix(1 0 0 -1 899.5 261.655)"/><path d="M0.333331-0.00137125 0.483333 36.4621-0.183328 36.4648-0.333331 0.00137125ZM4.14448 35.1137 0.177428 43.1301-3.85545 35.1466Z" transform="matrix(-1 0 0 1 900.677 506.5)"/><path d="M218.5 350.167 254.988 350.167 254.988 398.816 254.655 398.482 775.08 398.482 775.08 399.149 254.321 399.149 254.321 350.5 254.655 350.833 218.5 350.833ZM773.747 394.816 781.747 398.816 773.747 402.816Z"/><text font-family="Cambria Math,Cambria Math_MSFontService,sans-serif" font-weight="400" font-size="27" transform="translate(680.72 382)">ğœƒ<tspan font-size="20" x="14.06" y="5">ğ‘ğ‘™ğ‘¢</tspan></text></g></svg>